HIERARCHY
ROOT Hips
{
	OFFSET 0.000000 0.000000 0.000000 
	CHANNELS 6 Xposition Yposition Zposition Zrotation Yrotation Xrotation
	JOINT LeftUpLeg
	{
		OFFSET 1.363060 -1.794630 0.839290 
		CHANNELS 3 Zrotation Yrotation Xrotation
		JOINT LeftLeg
		{
			OFFSET 2.448110 -6.726130 0.000000 
			CHANNELS 3 Zrotation Yrotation Xrotation
			JOINT LeftFoot
			{
				OFFSET 2.562200 -7.039590 0.000000 
				CHANNELS 3 Zrotation Yrotation Xrotation
				JOINT LeftToeBase
				{
					OFFSET 0.157640 -0.433110 2.322550 
					CHANNELS 3 Zrotation Yrotation Xrotation
					End Site
					{
						OFFSET 0.000000 0.000000 0.000000 
					}
				}
			}
		}
	}
	JOINT RightUpLeg
	{
		OFFSET -1.305520 -1.794630 0.839290 
		CHANNELS 3 Zrotation Yrotation Xrotation
		JOINT RightLeg
		{
			OFFSET -2.542530 -6.985550 0.000000 
			CHANNELS 3 Zrotation Yrotation Xrotation
			JOINT RightFoot
			{
				OFFSET -2.568260 -7.056230 0.000000 
				CHANNELS 3 Zrotation Yrotation Xrotation
				JOINT RightToeBase
				{
					OFFSET -0.164730 -0.452590 2.363150 
					CHANNELS 3 Zrotation Yrotation Xrotation
					End Site
					{
						OFFSET 0.000000 0.000000 0.000000 
					}
				}
			}
		}
	}
	JOINT Spine
	{
		OFFSET 0.028270 2.035590 -0.193380 
		CHANNELS 3 Zrotation Yrotation Xrotation
		JOINT Spine1
		{
			OFFSET 0.056720 2.048850 -0.042750 
			CHANNELS 3 Zrotation Yrotation Xrotation
			JOINT Neck1
			{
				OFFSET -0.054170 1.746240 0.172020 
				CHANNELS 3 Zrotation Yrotation Xrotation
				JOINT Head
				{
					OFFSET 0.104070 1.761360 -0.123970 
					CHANNELS 3 Zrotation Yrotation Xrotation
					End Site
					{
						OFFSET 0.000000 0.000000 0.000000 
					}
				}
			}
			JOINT LeftArm
			{
				OFFSET 3.362410 1.200890 -0.311210 
				CHANNELS 3 Zrotation Yrotation Xrotation
				JOINT LeftForeArm
				{
					OFFSET 4.983000 -0.000000 -0.000000 
					CHANNELS 3 Zrotation Yrotation Xrotation
					JOINT LeftHand
					{
						OFFSET 3.483560 -0.000000 -0.000000 
						CHANNELS 3 Zrotation Yrotation Xrotation
						JOINT LeftHandIndex1
						{
							OFFSET 0.715260 -0.000000 -0.000000 
							CHANNELS 3 Zrotation Yrotation Xrotation
							End Site
							{
								OFFSET 0.000000 0.000000 0.000000 
							}
						}
					}
				}
			}
			JOINT RightArm
			{
				OFFSET -3.136600 1.374050 -0.404650 
				CHANNELS 3 Zrotation Yrotation Xrotation
				JOINT RightForeArm
				{
					OFFSET -5.241900 -0.000000 -0.000000 
					CHANNELS 3 Zrotation Yrotation Xrotation
					JOINT RightHand
					{
						OFFSET -3.444170 -0.000000 -0.000000 
						CHANNELS 3 Zrotation Yrotation Xrotation
						JOINT RightHandIndex1
						{
							OFFSET -0.622530 -0.000000 -0.000000 
							CHANNELS 3 Zrotation Yrotation Xrotation
							End Site
							{
								OFFSET 0.000000 0.000000 0.000000 
							}
						}
					}
				}
			}
		}
	}
}
MOTION
Frames: 10
Frame Time: 0.041667
4.744161 18.080267 -1.386408 6.000863 -53.510216 -3.615655 -17.152726 -8.079282 -13.206111 5.752074 14.414480 47.169633 0.784898 -14.188769 1.568312 1.119000 -6.719700 -18.887500 15.335197 11.372683 -12.854090 -2.049891 -9.175801 28.065701 -1.937010 11.570268 -0.222620 -0.002500 0.322900 -0.887300 5.146727 -6.271720 0.833832 9.052875 -3.073223 -6.093883 12.037137 -38.829365 25.217014 2.199000 -18.223800 16.520400 -87.997444 11.204550 17.474243 18.228021 -25.866091 -5.065481 -1.032656 -2.378698 6.421207 -7.125000 0.000000 0.000000 78.004456 2.368523 16.787961 -21.038542 29.907148 -5.967493 0.442568 0.011254 -0.133021 7.125000 0.000000 0.000000 
4.816739 18.081368 -1.434560 6.188162 -53.683117 -3.711213 -17.410329 -7.772287 -12.387077 5.636857 14.290161 46.744528 0.767490 -14.426382 1.951397 1.137200 -6.772500 -19.043100 15.108327 11.401262 -13.288234 -2.051137 -9.192114 28.090730 -1.957387 11.984146 0.238527 -0.000100 0.057000 -0.156600 5.108448 -6.381145 0.831704 8.989862 -3.137744 -5.958075 11.916247 -38.699670 25.236871 2.177500 -18.165800 16.416400 -87.935911 11.149258 17.415554 18.213913 -25.851860 -5.060635 -0.996520 -2.379745 6.535119 -7.125000 0.000000 0.000000 78.149439 2.409656 16.680818 -20.868338 29.707010 -5.876979 0.437312 0.004551 0.027587 7.125000 0.000000 0.000000 
4.889419 18.081168 -1.483514 6.291896 -53.838846 -3.775263 -17.621392 -7.577005 -11.445841 5.471693 14.121781 46.131511 0.756429 -14.594134 2.270272 1.243000 -7.069200 -19.920600 14.955341 11.520157 -13.644497 -2.055674 -9.216710 28.141976 -1.961604 12.228421 0.645051 -0.000600 -0.154200 0.423700 5.119205 -6.336754 0.833239 8.971174 -3.126198 -5.883425 11.877251 -38.717062 25.172684 2.157900 -18.172600 16.356300 -87.892742 11.035047 17.714151 18.162212 -25.780354 -5.032897 -0.988890 -2.391288 6.609525 -7.125000 0.000000 0.000000 78.175183 2.417759 16.205603 -20.698209 29.503266 -5.782654 0.436709 -0.000456 0.242008 7.125000 0.000000 0.000000 
4.963099 18.082369 -1.533768 6.358922 -53.988334 -3.852530 -17.772129 -7.358376 -10.470653 5.262315 13.908562 45.347579 0.739612 -14.958604 2.800862 1.224200 -7.017500 -19.767400 14.863986 11.638899 -14.024104 -2.069341 -9.259967 28.251228 -1.951515 12.308363 1.006333 -0.001700 -0.264200 0.725800 5.167928 -6.319066 0.783159 9.075258 -3.114096 -5.965733 11.769181 -38.755750 25.206083 2.120100 -18.200500 16.354800 -87.957401 11.054860 17.944996 18.124223 -25.725910 -5.012938 -0.998979 -2.387389 6.554999 -7.125000 0.000000 0.000000 78.051365 2.227907 15.745484 -20.575374 29.359399 -5.715865 0.429127 -0.011709 0.629085 7.125000 0.000000 0.000000 
5.036278 18.085473 -1.579118 6.588892 -54.170591 -4.121211 -18.041647 -7.067167 -9.419821 5.019090 13.655279 44.430922 0.706253 -15.377019 3.621537 0.572100 -4.844000 -13.464200 14.704511 11.612661 -14.473014 -2.094879 -9.324425 28.424850 -1.951231 12.535664 1.463497 -0.005200 -0.465500 1.279200 5.140956 -6.457151 0.765631 9.131089 -3.183127 -5.954648 11.570862 -38.662606 25.408082 2.055600 -18.153000 16.362200 -87.921335 11.107392 17.721634 18.139510 -25.754990 -5.022950 -0.979830 -2.387681 6.631272 -7.125000 0.000000 0.000000 78.098282 2.050319 15.846283 -20.503440 29.267219 -5.675251 0.437066 -0.011100 0.771806 7.125000 0.000000 0.000000 
5.113362 18.080467 -1.632376 6.849160 -54.287894 -4.239478 -18.315793 -6.833774 -8.516579 4.746814 13.372517 43.391280 0.684457 -15.614102 4.277174 0.676200 -5.258200 -14.646400 14.496782 11.720991 -15.109983 -2.130878 -9.409123 28.665499 -1.943250 12.764731 2.082352 -0.018300 -0.872800 2.398900 5.107532 -6.554814 0.759933 9.169148 -3.239850 -5.821646 11.492170 -38.626423 25.422479 2.021500 -18.126700 16.288000 -87.793821 11.014155 17.666746 18.156776 -25.786440 -5.033575 -0.973518 -2.388906 6.758541 -7.125000 0.000000 0.000000 78.235392 1.986315 15.844048 -20.448444 29.191388 -5.640793 0.453553 -0.003220 0.737580 7.125000 0.000000 0.000000 
5.191547 18.068354 -1.689638 7.100395 -54.368130 -4.332325 -18.592723 -6.603451 -7.655231 4.452446 13.060208 42.240044 0.677809 -15.770594 4.675276 0.817000 -5.767600 -16.111500 14.282965 11.966585 -15.720908 -2.174567 -9.506927 28.947164 -1.927809 12.842528 2.584922 -0.036800 -1.239000 3.406700 5.125156 -6.563543 0.710301 9.304103 -3.241253 -5.818857 11.539161 -38.647710 25.283151 2.058200 -18.157300 16.199300 -87.854945 10.931104 17.719710 18.157029 -25.780924 -5.031204 -1.010421 -2.373027 6.895167 -7.125000 0.000000 0.000000 78.219348 1.876639 15.518884 -20.393953 29.119923 -5.607932 0.456775 0.003016 0.524945 7.125000 0.000000 0.000000 
5.273136 18.055440 -1.744998 7.344743 -54.378707 -4.506366 -18.885532 -6.510007 -6.649185 4.136281 12.712699 40.979547 0.669860 -15.877856 5.109737 0.991600 -6.337600 -17.767000 14.064348 12.227872 -16.203181 -2.224232 -9.613695 29.253862 -1.912218 12.814452 2.900832 -0.067900 -1.681700 4.626800 5.164657 -6.642836 0.630589 9.533559 -3.266206 -5.949974 11.477549 -38.596997 25.303372 2.064500 -18.153800 16.175200 -88.016479 10.968990 17.767502 18.219398 -25.855153 -5.064764 -1.035883 -2.366668 6.706054 -7.125000 0.000000 0.000000 78.083596 1.753416 15.322359 -20.284692 28.980329 -5.546345 0.457604 0.003601 0.304632 7.125000 0.000000 0.000000 
5.352522 18.041525 -1.791849 7.518097 -54.466815 -4.663196 -19.243942 -6.596535 -5.469280 3.798413 12.329775 39.603654 0.670120 -15.732535 5.375011 0.656800 -5.183500 -14.432600 13.868436 12.622292 -16.583162 -2.274913 -9.720363 29.560126 -1.894565 12.709577 3.107078 -0.095300 -1.990600 5.479600 5.157557 -6.732637 0.605271 9.575496 -3.313187 -5.931158 11.422486 -38.514149 25.386660 2.067400 -18.124600 16.176300 -88.037046 10.974414 17.723850 18.280543 -25.935593 -5.099795 -1.020757 -2.374810 6.600213 -7.125000 0.000000 0.000000 78.065044 1.629803 15.180375 -20.179037 28.852365 -5.490258 0.456151 0.000021 0.527116 7.125000 0.000000 0.000000 
5.429206 18.024607 -1.839801 7.695311 -54.588876 -4.743188 -19.628557 -6.717211 -4.344946 3.438578 11.909793 38.105741 0.676518 -15.416316 5.547907 1.148300 -6.804200 -19.136500 13.677697 12.902846 -17.108190 -2.320996 -9.819924 29.834353 -1.885044 12.624827 3.169110 -0.060100 -1.581900 4.351600 5.108188 -6.756120 0.627226 9.449613 -3.345825 -5.726397 11.441837 -38.533425 25.441505 2.059100 -18.123900 16.224900 -87.889168 10.793865 17.795599 18.290994 -25.951135 -5.109666 -0.988233 -2.364151 6.724433 -7.125000 0.000000 0.000000 78.150538 1.588588 14.863745 -20.082659 28.744593 -5.441975 0.450614 -0.006157 0.822592 7.125000 0.000000 0.000000 
